<svg xmlns="http://www.w3.org/2000/svg" width="14" height="9.337" viewBox="0 0 14 9.337">
  <path id="Icon_ionic-ios-arrow-round-forward" data-name="Icon ionic-ios-arrow-round-forward" d="M12.428,5.18a.635.635,0,0,0,0,.895L15.38,9.036H4.127a.632.632,0,0,0,0,1.264H15.375l-2.957,2.961a.64.64,0,0,0,0,.895.63.63,0,0,0,.89,0l4.007-4.036h0a.71.71,0,0,0,.131-.2.6.6,0,0,0,.049-.243.634.634,0,0,0-.18-.443L13.313,5.194A.619.619,0,0,0,12.428,5.18Z" transform="translate(-3.5 -5.001)" fill="#6a6a6a"/>
</svg>
