<svg xmlns="http://www.w3.org/2000/svg" xmlns:xlink="http://www.w3.org/1999/xlink" width="70" height="60" viewBox="0 0 70 60">
  <defs>
    <clipPath id="clip-path">
      <rect id="bg" width="70" height="60" rx="5" transform="translate(795 1763)" fill="#fff" stroke="#e1e1e1" stroke-linejoin="round" stroke-width="1"/>
    </clipPath>
  </defs>
  <g id="Mask_Group_14" data-name="Mask Group 14" transform="translate(-795 -1763)" clip-path="url(#clip-path)">
    <g id="money" transform="translate(800 1763)">
      <g id="Group_6" data-name="Group 6">
        <g id="Group_5" data-name="Group 5">
          <g id="Group_4" data-name="Group 4">
            <path id="Path_516" data-name="Path 516" d="M37.056,13.783h.07S37.071,13.646,37.056,13.783Z"/>
            <path id="Path_517" data-name="Path 517" d="M20.127,13.783h.07C20.181,13.646,20.127,13.783,20.127,13.783Z"/>
          </g>
        </g>
      </g>
      <g id="Group_8" data-name="Group 8">
        <g id="Group_7" data-name="Group 7">
          <path id="Path_518" data-name="Path 518" d="M53.964,18.1a2.756,2.756,0,0,0-1.73-1.231l-3.8-.874,1.756-.492a2.774,2.774,0,1,0-1.5-5.343L40.5,12.451a2.793,2.793,0,0,0-.881-.967c1.662-3.093,4.056-8.341,4.056-10.6A.894.894,0,0,0,42.617.018a43.917,43.917,0,0,1-9.259.927A53.407,53.407,0,0,1,24.089.02a.893.893,0,0,0-.944,1.321,9.182,9.182,0,0,1,1.138,3.038A18.346,18.346,0,0,1,15.8,2.927a.893.893,0,0,0-1.269.937,19.185,19.185,0,0,0,3.74,9.034h-.033a2.774,2.774,0,0,0-.362,5.524,33.173,33.173,0,0,1-3.892,4.885C10.823,26.82,7.24,30.8,6.035,37.23a20.609,20.609,0,0,0,.057,8.555,15.845,15.845,0,0,0,3.249,6.532,20.006,20.006,0,0,0,8.575,5.836A30.918,30.918,0,0,0,28.626,60a30.917,30.917,0,0,0,10.71-1.848,20.007,20.007,0,0,0,8.575-5.836,15.845,15.845,0,0,0,3.249-6.532,20.611,20.611,0,0,0,.057-8.555C50.012,30.8,46.43,26.82,43.269,23.307c-1.073-1.193-2.094-2.33-2.95-3.484l10.673,2.452A2.774,2.774,0,0,0,53.964,18.1ZM33.339,2.715a44.715,44.715,0,0,0,8.4-.728,45.868,45.868,0,0,1-3.878,9.03,2.78,2.78,0,0,0-2.418,1.88H32.984c-.056-.12-.117-.251-.186-.4-.76-1.616-2.342-4.978-2.342-7.838A.894.894,0,0,0,29.4,3.795a31.244,31.244,0,0,1-3.343.477,11.418,11.418,0,0,0-.594-2.206A59.628,59.628,0,0,0,33.339,2.715Zm5.735,11.068v3.778a1,1,0,1,1-2.007,0V13.783a1,1,0,1,1,2.007,0ZM16.6,5.169a22.388,22.388,0,0,0,7.877.987l1.755-.111c.828-.076,1.667-.185,2.513-.328A23.657,23.657,0,0,0,31.028,12.9h-10.5a.906.906,0,0,0-.065-.091A16.943,16.943,0,0,1,16.6,5.169ZM41.952,24.491c3.005,3.34,6.411,7.125,7.525,13.065,1.025,5.467.04,10.053-2.929,13.629-3.66,4.41-10.36,7.044-17.922,7.044S14.364,55.6,10.7,51.186C7.735,47.609,6.75,43.023,7.775,37.556c1.114-5.94,4.52-9.726,7.525-13.065a29.029,29.029,0,0,0,4.582-6.045h2.162a.885.885,0,0,0,0-1.771H18.238a1,1,0,1,1,0-2.007H35.3v2.007H26.265a.885.885,0,0,0,0,1.771h9.177A2.774,2.774,0,0,0,38.485,20.3,43.055,43.055,0,0,0,41.952,24.491Zm-1.108-10.3,8.324-2.33A1,1,0,1,1,49.71,13.8l-4.757,1.331a.88.88,0,0,0-.112.041l-4-.918v-.057Zm11.747,5.6a1,1,0,0,1-1.2.753l-10.6-2.435a2.781,2.781,0,0,0,.056-.554V16.068l10.993,2.526A1.013,1.013,0,0,1,52.591,19.8Z"/>
        </g>
      </g>
      <g id="Group_10" data-name="Group 10">
        <g id="Group_9" data-name="Group 9">
          <path id="Path_519" data-name="Path 519" d="M34.293,36.39a2.3,2.3,0,0,0,2.3-2.3V32.671a6.561,6.561,0,0,0-5.666-6.492V24.644a2.3,2.3,0,0,0-4.6,0V26.3A7.26,7.26,0,0,0,27.918,40.64h1.417a2.656,2.656,0,1,1,0,5.312H27.209A1.95,1.95,0,0,1,25.262,44a2.3,2.3,0,1,0-4.6,0A6.561,6.561,0,0,0,26.324,50.5v1.535a2.3,2.3,0,1,0,4.6,0V50.379a7.26,7.26,0,0,0-1.594-14.343H27.918a2.656,2.656,0,0,1,0-5.312h2.125a1.95,1.95,0,0,1,1.948,1.948v1.417A2.3,2.3,0,0,0,34.293,36.39Zm-4.25-7.437H27.918a4.427,4.427,0,0,0,0,8.854h1.417a5.489,5.489,0,0,1,.611,10.944.885.885,0,0,0-.788.88v2.4a.531.531,0,1,1-1.062,0V49.67a.885.885,0,0,0-.885-.885A4.786,4.786,0,0,1,22.429,44a.531.531,0,1,1,1.062,0,3.723,3.723,0,0,0,3.719,3.719h2.125a4.427,4.427,0,1,0,0-8.854H27.918a5.489,5.489,0,0,1-.611-10.944.885.885,0,0,0,.788-.88v-2.4a.531.531,0,1,1,1.062,0V27a.885.885,0,0,0,.885.885,4.786,4.786,0,0,1,4.781,4.781v1.417a.531.531,0,1,1-1.062,0V32.671A3.723,3.723,0,0,0,30.043,28.953Z"/>
        </g>
      </g>
    </g>
  </g>
</svg>
