<svg xmlns="http://www.w3.org/2000/svg"  width="20" height="17.5" viewBox="0 0 20 17.5">
  <path id="Icon_awesome-headphones" data-name="Icon awesome-headphones" d="M8,1A8,8,0,0,0,0,9v1.5a1,1,0,0,0,.553.894L1,11.619A3.5,3.5,0,0,0,4.5,15h.75A.75.75,0,0,0,6,14.25V8.75A.75.75,0,0,0,5.25,8H4.5A3.489,3.489,0,0,0,2,9.051V9A6,6,0,0,1,14,9v.051A3.489,3.489,0,0,0,11.5,8h-.75a.75.75,0,0,0-.75.75v5.5a.75.75,0,0,0,.75.75h.75A3.5,3.5,0,0,0,15,11.619l.449-.225A1,1,0,0,0,16,10.5V9A8,8,0,0,0,8,1Z" transform="translate(0 -1)" fill="#5cc9a3"/>
</svg>
