<svg xmlns="http://www.w3.org/2000/svg" xmlns:xlink="http://www.w3.org/1999/xlink" width="70" height="60" viewBox="0 0 70 60">
  <defs>
    <clipPath id="clip-path">
      <rect id="bg" width="70" height="60" rx="5" transform="translate(419.995 1763)" fill="#fff" stroke="#e1e1e1" stroke-linejoin="round" stroke-width="1"/>
    </clipPath>
  </defs>
  <g id="Mask_Group_13" data-name="Mask Group 13" transform="translate(-419.995 -1763)" clip-path="url(#clip-path)">
    <g id="Free_delivery" data-name="Free delivery" transform="translate(417.661 1744.583)">
      <path id="Path_510" data-name="Path 510" d="M71.167,61.833H70V49A10.512,10.512,0,0,0,59.5,38.5H51.333V25.667A1.167,1.167,0,0,0,50.167,24.5H3.5a1.167,1.167,0,0,0-1.167,1.167V63A1.167,1.167,0,0,0,3.5,64.167H4.667v1.167a3.5,3.5,0,0,0,3.5,3.5h5.614a6.984,6.984,0,0,0,12.105,0H53.447a6.984,6.984,0,0,0,12.105,0h3.281a3.5,3.5,0,0,0,3.5-3.5V63A1.167,1.167,0,0,0,71.167,61.833ZM67.667,49v2.333h-10.5A1.167,1.167,0,0,1,56,50.167V40.833h3.5A8.176,8.176,0,0,1,67.667,49Zm-14-8.167v9.333a3.5,3.5,0,0,0,3.5,3.5h10.5v8.167H65.553a6.984,6.984,0,0,0-12.105,0H51.333v-21Zm-27.781,21a6.984,6.984,0,0,0-12.105,0H4.667V57.167H49v4.667Zm-21.219-35H49v28H4.667ZM8.167,66.5A1.167,1.167,0,0,1,7,65.333V64.167h5.938a6.533,6.533,0,0,0,0,2.333ZM19.833,70A4.667,4.667,0,1,1,24.5,65.333,4.667,4.667,0,0,1,19.833,70Zm6.9-3.5a6.533,6.533,0,0,0,0-2.333H52.6a6.533,6.533,0,0,0,0,2.333ZM59.5,70a4.667,4.667,0,1,1,4.667-4.667A4.667,4.667,0,0,1,59.5,70ZM70,65.333A1.167,1.167,0,0,1,68.833,66.5H66.395a6.533,6.533,0,0,0,0-2.333H70Z"/>
      <path id="Path_511" data-name="Path 511" d="M11.667,44.333a1.167,1.167,0,0,0,1.167-1.167v-3.5h2.333a1.167,1.167,0,1,0,0-2.333H12.833V35h3.5a1.167,1.167,0,1,0,0-2.333H11.667A1.167,1.167,0,0,0,10.5,33.833v9.333A1.167,1.167,0,0,0,11.667,44.333Z"/>
      <path id="Path_512" data-name="Path 512" d="M19.833,44.333A1.167,1.167,0,0,0,21,43.167V40.445l2.567,3.422a1.167,1.167,0,0,0,1.867-1.4L23.2,39.493a3.491,3.491,0,0,0-1.036-6.826H19.833a1.167,1.167,0,0,0-1.167,1.167v9.333A1.167,1.167,0,0,0,19.833,44.333Zm3.5-8.167a1.167,1.167,0,0,1-1.167,1.167H21V35h1.167A1.167,1.167,0,0,1,23.333,36.167Z"/>
      <path id="Path_513" data-name="Path 513" d="M29.167,44.333h4.667a1.167,1.167,0,1,0,0-2.333h-3.5V39.667h2.333a1.167,1.167,0,1,0,0-2.333H30.333V35h3.5a1.167,1.167,0,1,0,0-2.333H29.167A1.167,1.167,0,0,0,28,33.833v9.333A1.167,1.167,0,0,0,29.167,44.333Z"/>
      <path id="Path_514" data-name="Path 514" d="M37.333,44.333H42A1.167,1.167,0,0,0,42,42H38.5V39.667h2.333a1.167,1.167,0,1,0,0-2.333H38.5V35H42a1.167,1.167,0,0,0,0-2.333H37.333a1.167,1.167,0,0,0-1.167,1.167v9.333A1.167,1.167,0,0,0,37.333,44.333Z"/>
      <path id="Path_515" data-name="Path 515" d="M45.5,46.667H8.167a1.167,1.167,0,0,0,0,2.333H45.5a1.167,1.167,0,0,0,0-2.333Z"/>
    </g>
  </g>
</svg>
