<svg xmlns="http://www.w3.org/2000/svg" width="18" height="16" viewBox="0 0 18 16"  >
  <path id="Icon_awesome-cart-arrow-down" data-name="Icon awesome-cart-arrow-down" d="M15.772,10H6.612l.2,1H15.2a.75.75,0,0,1,.731.916l-.172.759A1.751,1.751,0,1,1,13.776,13H7.224a1.75,1.75,0,1,1-2.1-.268L2.934,2H.75A.75.75,0,0,1,0,1.25V.75A.75.75,0,0,1,.75,0h3.2a.75.75,0,0,1,.735.6L4.975,2H17.25a.75.75,0,0,1,.731.916L16.5,9.416A.75.75,0,0,1,15.772,10ZM12.595,6H11.25V4.125a.375.375,0,0,0-.375-.375h-.75a.375.375,0,0,0-.375.375V6H8.405a.375.375,0,0,0-.265.64l2.095,2.095a.375.375,0,0,0,.53,0L12.86,6.64A.375.375,0,0,0,12.595,6Z" />
</svg>
