<svg xmlns="http://www.w3.org/2000/svg" width="18" height="17.25" viewBox="0 0 18 17.25">
  <g id="Cart" transform="translate(0.75 0.75)">
    <g id="Icon_feather-shopping-cart" data-name="Icon feather-shopping-cart">
      <path id="Path_73" data-name="Path 73" d="M7.5,15.75A.75.75,0,1,1,6.75,15,.75.75,0,0,1,7.5,15.75Z" transform="translate(-0.75 -0.75)" fill="none" stroke="#828282" stroke-linecap="round" stroke-linejoin="round" stroke-width="1.5"/>
      <path id="Path_74" data-name="Path 74" d="M15.75,15.75A.75.75,0,1,1,15,15,.75.75,0,0,1,15.75,15.75Z" transform="translate(-0.75 -0.75)" fill="none" stroke="#828282" stroke-linecap="round" stroke-linejoin="round" stroke-width="1.5"/>
      <path id="Path_75" data-name="Path 75" d="M.75.75h3L5.76,10.792A1.5,1.5,0,0,0,7.26,12h7.29a1.5,1.5,0,0,0,1.5-1.208L17.25,4.5H4.5" transform="translate(-0.75 -0.75)" fill="none" stroke="#828282" stroke-linecap="round" stroke-linejoin="round" stroke-width="1.5"/>
    </g>
  </g>
</svg>
