  <svg
        xmlns="http://www.w3.org/2000/svg"
        width="17.5"
        height="14"
        viewBox="0 0 17.5 14"
      >
        <path
          id="Icon_awesome-shipping-fast"
          data-name="Icon awesome-shipping-fast"
          d="M17.063,9.625h-.437V6.669a1.313,1.313,0,0,0-.386-.927L13.508,3.011a1.313,1.313,0,0,0-.927-.386H11.375V1.313A1.313,1.313,0,0,0,10.063,0h-7A1.313,1.313,0,0,0,1.75,1.313V2.625H.219A.219.219,0,0,0,0,2.844v.438A.219.219,0,0,0,.219,3.5H7.656a.219.219,0,0,1,.219.219v.438a.219.219,0,0,1-.219.219H1.094a.219.219,0,0,0-.219.219v.438a.219.219,0,0,0,.219.219H6.781A.219.219,0,0,1,7,5.469v.438a.219.219,0,0,1-.219.219H.219A.219.219,0,0,0,0,6.344v.438A.219.219,0,0,0,.219,7H5.906a.219.219,0,0,1,.219.219v.438a.219.219,0,0,1-.219.219H1.75v3.5a2.625,2.625,0,0,0,5.25,0h3.5a2.625,2.625,0,0,0,5.25,0h1.313a.439.439,0,0,0,.438-.437v-.875A.439.439,0,0,0,17.063,9.625ZM4.375,12.688a1.313,1.313,0,1,1,1.313-1.312A1.313,1.313,0,0,1,4.375,12.688Zm8.75,0a1.313,1.313,0,1,1,1.313-1.312A1.313,1.313,0,0,1,13.125,12.688ZM15.313,7H11.375V3.938h1.206l2.732,2.732Z"
          fill="#5cc9a3"
        />
      </svg>