<svg xmlns="http://www.w3.org/2000/svg" xmlns:xlink="http://www.w3.org/1999/xlink" width="36" height="36" viewBox="0 0 36 36">
  <defs>
    <clipPath id="clip-path">
      <circle id="ro" cx="18" cy="18" r="18" transform="translate(-0.079)" fill="#f5f5f5"/>
    </clipPath>
  </defs>
  <g id="Mask" transform="translate(0.079)" clip-path="url(#clip-path)">
    <g id="collaboration" transform="translate(0 4.01)">
      <path id="Path_508" data-name="Path 508" d="M23.374,22.594a.519.519,0,0,0,.367-.886L23,20.963a.519.519,0,0,0-.734.734l.745.745a.518.518,0,0,0,.367.152Z" transform="translate(0 -4.01)" fill="#c9a75c"/>
      <circle id="Ellipse_22" data-name="Ellipse 22" cx="0.625" cy="0.625" r="0.625" transform="translate(3.422 7.741)" fill="#c9a75c"/>
      <path id="Path_509" data-name="Path 509" d="M35.727,11.6,31.16,7.034a.519.519,0,0,0-.734.734l4.493,4.493-2.89,2.89-7.17-7.17,2.89-2.89.955.955a.519.519,0,1,0,.734-.734L28.41,4.284a.935.935,0,0,0-1.322,0L24.051,7.321a.932.932,0,0,0-.217.981L22.628,9.509a.862.862,0,0,1-.668.252L15.6,9.347a1.98,1.98,0,0,0-1.693.758,2.987,2.987,0,0,1-.589-.458L12.165,8.493a.935.935,0,0,0-.216-.981L8.912,4.475a.935.935,0,0,0-1.322,0L.273,11.792a.936.936,0,0,0,0,1.322L3.31,16.151a.935.935,0,0,0,1.322,0l6.861-6.861,1.092,1.092a4.023,4.023,0,0,0,.826.635l-.348.705a1.3,1.3,0,0,1-.215.311l-1.872,2.01a1.078,1.078,0,0,0,.344,1.717l.792.359a2.917,2.917,0,0,0,1,.173,3,3,0,0,0,1.914-.692l1.524-1.258a.175.175,0,0,1,.149-.035l4.51,1.042.139.03.071.257a1.925,1.925,0,0,0,.494.848l6.949,6.949a.52.52,0,0,1,0,.734l-.963.963a.519.519,0,0,1-.734,0l-.776-.776h0l-.814-.814a.519.519,0,1,0-.734.734l1.04,1.04a.52.52,0,0,1,0,.734l-.963.963a.519.519,0,0,1-.734,0l-3.617-3.617a.519.519,0,0,0-.734.734l3.055,3.055a.52.52,0,0,1,0,.734l-.962.962a.52.52,0,0,1-.734,0l-3.055-3.055a.516.516,0,0,0-.784.059l-.339-.339h0a1.55,1.55,0,0,0-.588-.368,1.553,1.553,0,0,0-.369-1.612l-.963-.962h0a1.553,1.553,0,0,0-1.613-.369,1.546,1.546,0,0,0-.367-.588l-.963-.962a1.56,1.56,0,0,0-1.942-.209,1.547,1.547,0,0,0-.319-.467l-.963-.963h0a1.546,1.546,0,0,0-1.053-.454c-.027-.029-1.393-1.4-1.393-1.4a.519.519,0,1,0-.734.734l1.05,1.05c-.025.022-.05.043-.073.066l-.809.809a1.852,1.852,0,0,0,0,2.617l.549.549a1.838,1.838,0,0,0,1.308.542H7.8c0,.011,0,.022,0,.033A1.838,1.838,0,0,0,8.343,24.9l.549.549a1.844,1.844,0,0,0,1.308.541h0a1.772,1.772,0,0,0,.519,1.29l.652.652a1.766,1.766,0,0,0,1.257.521h.032v0a1.838,1.838,0,0,0,.542,1.308l.549.549a1.849,1.849,0,0,0,2.575.04l1.181,1.181a1.558,1.558,0,0,0,2.2,0l.962-.962a1.55,1.55,0,0,0,.368-.589,1.553,1.553,0,0,0,1.612-.368l.963-.963a1.545,1.545,0,0,0,.357-.559,1.557,1.557,0,0,0,1.674-.347l.963-.963a1.545,1.545,0,0,0,.359-.566,1.555,1.555,0,0,0,1.66-.352L29.6,24.9a1.56,1.56,0,0,0,0-2.2l-1.67-1.67.98-1.748a3.639,3.639,0,0,1,.6-.793L31.791,16.2a.93.93,0,0,0,.9-.242l3.037-3.037a.936.936,0,0,0,0-1.322ZM3.971,15.343l-2.89-2.89,7.17-7.17,2.89,2.89Zm3.8,7.179a.806.806,0,0,1-.574-.238l-.549-.549a.813.813,0,0,1,0-1.148l.809-.809a.519.519,0,0,1,.734,0l.963.963a.52.52,0,0,1,0,.734l-.809.809a.807.807,0,0,1-.574.238Zm1.857,2.194-.549-.549a.812.812,0,0,1,0-1.148l1.6-1.6a.52.52,0,0,1,.734,0l.962.962a.52.52,0,0,1,0,.734l-1.6,1.6A.813.813,0,0,1,9.627,24.715ZM13.155,27.2a.743.743,0,0,1-1.045,0l-.652-.652a.74.74,0,0,1,0-1.045l2.165-2.165a.522.522,0,0,1,.734,0h0l.963.963a.519.519,0,0,1,0,.734Zm1.908,2.618a.806.806,0,0,1-.574-.238l-.549-.549a.811.811,0,0,1,0-1.147l1.6-1.6a.522.522,0,0,1,.734,0h0l.962.962a.52.52,0,0,1,0,.734l-1.6,1.6a.807.807,0,0,1-.574.238Zm4.879.021-.963.963a.519.519,0,0,1-.734,0l-1.18-1.18.908-.908a1.552,1.552,0,0,0,.454-1.123L19.943,29.1a.519.519,0,0,1,0,.734Zm8.828-12.083A4.678,4.678,0,0,0,28,18.773l-.837,1.493L22.646,15.75a.884.884,0,0,1-.192-.291,4.5,4.5,0,0,0,1.3-.262.519.519,0,1,0-.353-.977,3.46,3.46,0,0,1-1.959.117L16.932,13.3a1.22,1.22,0,0,0-1.044.246L14.364,14.8a1.966,1.966,0,0,1-1.85.362l-.765-.347c-.02,0-.032-.056-.013-.063l.033-.035,1.839-1.974a2.336,2.336,0,0,0,.386-.56l.627-1.271a.946.946,0,0,1,.913-.527l6.358.414a1.905,1.905,0,0,0,1.47-.554L24.507,9.1l6.46,6.459Z" transform="translate(0 -4.01)" fill="#c9a75c"/>
    </g>
  </g>
</svg>
