<svg xmlns="http://www.w3.org/2000/svg" width="13" height="9" viewBox="0 0 13 9">
  <g id="Icon_ionic-ios-mail" data-name="Icon ionic-ios-mail" transform="translate(-1.5 -3.5)">
    <path id="Path_108" data-name="Path 108" d="M14.394,4.6,11.031,8.028a.06.06,0,0,0,0,.087l2.353,2.506a.406.406,0,0,1,0,.575.407.407,0,0,1-.575,0L10.466,8.7a.064.064,0,0,0-.091,0L9.8,9.281a2.516,2.516,0,0,1-1.794.756,2.567,2.567,0,0,1-1.831-.778L5.628,8.7a.064.064,0,0,0-.091,0L3.194,11.2a.407.407,0,0,1-.575,0,.406.406,0,0,1,0-.575L4.972,8.116a.067.067,0,0,0,0-.087L1.606,4.6a.062.062,0,0,0-.106.044V11.5a1,1,0,0,0,1,1h11a1,1,0,0,0,1-1V4.647A.063.063,0,0,0,14.394,4.6Z" fill="#c9a75c"/>
    <path id="Path_109" data-name="Path 109" d="M8,9.222a1.7,1.7,0,0,0,1.222-.512l4.9-4.991a.982.982,0,0,0-.619-.219H2.5a.976.976,0,0,0-.619.219l4.9,4.991A1.7,1.7,0,0,0,8,9.222Z" fill="#c9a75c"/>
  </g>
</svg>
