<svg xmlns="http://www.w3.org/2000/svg" xmlns:xlink="http://www.w3.org/1999/xlink" width="70" height="60" viewBox="0 0 70 60">
  <defs>
    <clipPath id="clip-path">
      <rect id="bg" width="70" height="60" rx="5" transform="translate(1195 1763)" fill="#fff" stroke="#e1e1e1" stroke-linejoin="round" stroke-width="1"/>
    </clipPath>
  </defs>
  <g id="Mask_Group_15" data-name="Mask Group 15" transform="translate(-1195 -1763)" clip-path="url(#clip-path)">
    <g id="credit_card-security-card-payment-safety" data-name="credit card-security-card-payment-safety" transform="translate(1194.444 1754.111)">
      <path id="Path_520" data-name="Path 520" d="M65.555,8.889h-60a3.343,3.343,0,0,0-3.333,3.333V50a3.343,3.343,0,0,0,3.333,3.333H37.8a9.836,9.836,0,0,0,2.911,6.722l8.5,8.511a1.127,1.127,0,0,0,1.578,0l8.5-8.511A9.836,9.836,0,0,0,62.2,53.333h3.356A3.343,3.343,0,0,0,68.889,50V12.222a3.343,3.343,0,0,0-3.333-3.333ZM60,52.989a7.752,7.752,0,0,1-2.278,5.5L50,66.211l-7.722-7.722A7.752,7.752,0,0,1,40,52.989V41.867l10-4,10,4ZM66.667,50a1.111,1.111,0,0,1-1.111,1.111H62.222v-10a1.111,1.111,0,0,0-.7-1.033L50.411,35.633a1.164,1.164,0,0,0-.822,0L38.478,40.078a1.111,1.111,0,0,0-.7,1.033v10H5.556A1.111,1.111,0,0,1,4.444,50V17.778H66.667Zm0-34.444H4.444V12.222a1.111,1.111,0,0,1,1.111-1.111h60a1.111,1.111,0,0,1,1.111,1.111Z"/>
      <path id="Path_521" data-name="Path 521" d="M14.444,28.889A1.111,1.111,0,0,1,15.556,30a1.111,1.111,0,0,0,1.111,1.111h4.444A1.111,1.111,0,0,0,22.222,30a7.79,7.79,0,0,0-4.444-7.022V21.111A1.111,1.111,0,0,0,16.667,20H12.222a1.111,1.111,0,0,0-1.111,1.111v1.854a7.781,7.781,0,0,0,3.333,14.812,1.111,1.111,0,1,1-1.111,1.111,1.111,1.111,0,0,0-1.111-1.111H7.778a1.111,1.111,0,0,0-1.111,1.111,7.788,7.788,0,0,0,4.444,7.021v1.868a1.111,1.111,0,0,0,1.111,1.111h4.444a1.111,1.111,0,0,0,1.111-1.111V45.91a7.778,7.778,0,0,0-3.333-14.8,1.111,1.111,0,1,1,0-2.222Zm0,4.444A5.556,5.556,0,0,1,16.3,44.121a1.111,1.111,0,0,0-.74,1.047v1.5H13.333v-1.5a1.111,1.111,0,0,0-.74-1.047A5.567,5.567,0,0,1,9,40h2.3a3.333,3.333,0,1,0,3.146-4.444A5.537,5.537,0,0,1,10.131,33.5a5.611,5.611,0,0,1-1.117-4.709,5.5,5.5,0,0,1,3.572-4.032,1.111,1.111,0,0,0,.747-1.049V22.222h2.222v1.5a1.111,1.111,0,0,0,.74,1.047,5.568,5.568,0,0,1,3.593,4.122h-2.3a3.333,3.333,0,1,0-3.143,4.444Z"/>
      <path id="Path_522" data-name="Path 522" d="M24.444,22.222h4.444v2.222H24.444Z"/>
      <path id="Path_523" data-name="Path 523" d="M31.111,22.222H62.222v2.222H31.111Z"/>
      <path id="Path_524" data-name="Path 524" d="M24.444,28.889h4.444v2.222H24.444Z"/>
      <path id="Path_525" data-name="Path 525" d="M31.111,28.889H62.222v2.222H31.111Z"/>
      <path id="Path_526" data-name="Path 526" d="M45.556,46.667a4.433,4.433,0,0,0,1.111,2.922v5.967a3.333,3.333,0,1,0,6.667,0V49.589a4.444,4.444,0,1,0-7.778-2.922Zm6.667,0a2.193,2.193,0,0,1-.744,1.643,1.111,1.111,0,0,0-.367.826v6.42a1.111,1.111,0,0,1-2.222,0v-6.42a1.111,1.111,0,0,0-.367-.826,2.193,2.193,0,0,1-.744-1.643,2.222,2.222,0,0,1,4.444,0Z"/>
    </g>
  </g>
</svg>
